<svg id="ae45e00a-b11f-4e4b-a8f1-df0fa5869e30" data-name="Layer 1" xmlns="http://www.w3.org/2000/svg" viewBox="0 0 890.71 273.42"><defs><style>.f428edc1-3496-435f-9e67-29901417c90c{fill:#f7931e;}.a73ba871-320c-446d-9fbd-29b6133ac097{fill:blue;}</style></defs><path class="f428edc1-3496-435f-9e67-29901417c90c" d="M323.09,154.18a12.71,12.71,0,0,0-4.77-2.31c-.61-.17-1.25-.31-1.88-.46v13.82l.58-.08a13.85,13.85,0,0,0,3.86-1,8.54,8.54,0,0,0,3-2.16,5.32,5.32,0,0,0,1.23-3.67A5,5,0,0,0,323.09,154.18Zm0,0a12.71,12.71,0,0,0-4.77-2.31c-.61-.17-1.25-.31-1.88-.46v13.82l.58-.08a13.85,13.85,0,0,0,3.86-1,8.54,8.54,0,0,0,3-2.16,5.32,5.32,0,0,0,1.23-3.67A5,5,0,0,0,323.09,154.18Zm-6-46.51a59,59,0,0,1,9.38.74v-49c0-46.68-54.74-71.83-90.16-41.47l-95.64,82a54.62,54.62,0,0,0,0,82.93l95.64,82c35.42,30.36,90.16,5.21,90.16-41.47V175.92a39.7,39.7,0,0,1-10,1.83v37.59c0,42.12-49.38,64.85-81.35,37.44l-86.32-74a49.29,49.29,0,0,1,0-74.85l86.32-74c-7.77,6.67,81.35-13.92,81.35,37.44v40.28Zm6,46.51a12.71,12.71,0,0,0-4.77-2.31c-.61-.17-1.25-.31-1.88-.46v13.82l.58-.08a13.85,13.85,0,0,0,3.86-1,8.54,8.54,0,0,0,3-2.16,5.32,5.32,0,0,0,1.23-3.67A5,5,0,0,0,323.09,154.18Zm0,0a12.71,12.71,0,0,0-4.77-2.31c-.61-.17-1.25-.31-1.88-.46v13.82l.58-.08a13.85,13.85,0,0,0,3.86-1,8.54,8.54,0,0,0,3-2.16,5.32,5.32,0,0,0,1.23-3.67A5,5,0,0,0,323.09,154.18Z" transform="translate(-121.57 -4.66)"/><path class="a73ba871-320c-446d-9fbd-29b6133ac097" d="M178.68,168V107.7H160v74.49H209.7V168Z" transform="translate(-121.57 -4.66)"/><path class="a73ba871-320c-446d-9fbd-29b6133ac097" d="M256.18,107.7H235.77L210.6,182.19h18.75L234,167h23.42l4.65,15.21h19.26ZM238.1,153.48l7.63-24.57,7.6,24.57Z" transform="translate(-121.57 -4.66)"/><path class="a73ba871-320c-446d-9fbd-29b6133ac097" d="M308.56,121.59a17.93,17.93,0,0,1,4.09-1.35,27.64,27.64,0,0,1,2.79-.31V106.35q-12.81.15-21.43,6.47-8.89,6.48-8.88,16.93,0,7.77,3.75,12.91c2.52,3.44,6.64,6.16,12.42,8.21a66.17,66.17,0,0,0,8.08,2.2c2.11.43,4.13.9,6.06,1.39v-19.1l-1.33-.31c-3.87-.9-6.48-1.9-7.83-3a5.82,5.82,0,0,1-.76-8.05A8.38,8.38,0,0,1,308.56,121.59Zm3.29,48.34a37.05,37.05,0,0,1-13.11-2.56,42.36,42.36,0,0,1-12.36-7.3h-1.7v17.71a75.39,75.39,0,0,0,12.05,4.1,61.14,61.14,0,0,0,15,1.66c1.27,0,2.5,0,3.69-.1V169.67A34.61,34.61,0,0,1,311.85,169.93Zm28.45-23.48q-3.78-4.74-11.54-7.54c-.78-.27-1.56-.54-2.32-.78v43.3a30,30,0,0,0,8.9-4.65,21.46,21.46,0,0,0,8.73-17.85Q344.07,151.15,340.3,146.45Zm-28.45,23.48a37.05,37.05,0,0,1-13.11-2.56,42.36,42.36,0,0,1-12.36-7.3h-1.7v17.71a75.39,75.39,0,0,0,12.05,4.1,61.14,61.14,0,0,0,15,1.66c1.27,0,2.5,0,3.69-.1V169.67A34.61,34.61,0,0,1,311.85,169.93Zm17.48-62.23c-1-.21-1.92-.37-2.89-.53v14.15a30.11,30.11,0,0,1,2.89,1,37.11,37.11,0,0,1,10.15,6h1.64v-17A57.54,57.54,0,0,0,329.33,107.7Zm-44.2,22q0,7.77,3.75,12.91c2.52,3.44,6.64,6.16,12.42,8.21a66.17,66.17,0,0,0,8.08,2.2c2.11.43,4.13.9,6.06,1.39v-19.1l-1.33-.31c-3.87-.9-6.48-1.9-7.83-3a5.82,5.82,0,0,1-.76-8.05,8.38,8.38,0,0,1,3-2.38,17.93,17.93,0,0,1,4.09-1.35,27.64,27.64,0,0,1,2.79-.31V106.35q-12.81.15-21.43,6.47Q285.12,119.3,285.13,129.75Z" transform="translate(-121.57 -4.66)"/><path class="a73ba871-320c-446d-9fbd-29b6133ac097" d="M383.29,141.26v14h14.47v14.61c-.68.06-1.46.12-2.36.14s-1.68.06-2.36.06q-11.34,0-17.91-6.21t-6.53-19.26a30.23,30.23,0,0,1,1.72-10.69,21.41,21.41,0,0,1,4.67-7.63,20.35,20.35,0,0,1,7.05-4.59,24.53,24.53,0,0,1,8.77-1.49,25.71,25.71,0,0,1,7.77,1.14,31.71,31.71,0,0,1,6.47,2.75,40.19,40.19,0,0,1,4.94,3.28l3.87,3h1.7V112.84A78.67,78.67,0,0,0,403.45,108a53.31,53.31,0,0,0-15.2-1.79q-18.11,0-28.55,10.56t-10.43,28.07q0,18.6,10.43,28.73t28,10.14a65,65,0,0,0,15.44-1.9,89.38,89.38,0,0,0,12.74-3.92V141.26Z" transform="translate(-121.57 -4.66)"/><path class="a73ba871-320c-446d-9fbd-29b6133ac097" d="M448.68,168V107.7H430v74.49H479.7V168Z" transform="translate(-121.57 -4.66)"/><path class="a73ba871-320c-446d-9fbd-29b6133ac097" d="M546.79,116.53q-9.64-10.4-26.47-10.39t-26.46,10.43Q484.25,127,484.25,145q0,17.81,9.61,28.28t26.46,10.49q16.81,0,26.47-10.37t9.65-28.4Q556.44,126.89,546.79,116.53Zm-11,39.71a24.33,24.33,0,0,1-3.69,7.58,13.88,13.88,0,0,1-5.37,4.43,15.34,15.34,0,0,1-6.39,1.44,15.83,15.83,0,0,1-6.31-1.34,13.93,13.93,0,0,1-5.45-4.42,23.32,23.32,0,0,1-3.71-7.58A41.35,41.35,0,0,1,503.58,145,41.1,41.1,0,0,1,505,133.5a23,23,0,0,1,3.73-7.71,15.15,15.15,0,0,1,5.41-4.36,15.95,15.95,0,0,1,12.52.1,14.15,14.15,0,0,1,5.43,4.36,23.44,23.44,0,0,1,3.69,7.69,41.21,41.21,0,0,1,1.37,11.33A39.92,39.92,0,0,1,535.83,156.24Z" transform="translate(-121.57 -4.66)"/><path class="a73ba871-320c-446d-9fbd-29b6133ac097" d="M644.7,107.7l-10.82,50L622,107.7H603.47l-12.5,50-10.26-50H561.3l18.85,74.49h20.52l11.62-46.09,11.94,46.09h20.51l18.88-74.49Z" transform="translate(-121.57 -4.66)"/><path class="a73ba871-320c-446d-9fbd-29b6133ac097" d="M665.11,107.7v14.2h22v60.29h18.71V121.9h22V107.7Z" transform="translate(-121.57 -4.66)"/><path class="a73ba871-320c-446d-9fbd-29b6133ac097" d="M785.93,121.9V107.7H735.54v74.49h50.39V168H754.17V149.17h29.26V135H754.17v-13Z" transform="translate(-121.57 -4.66)"/><path class="a73ba871-320c-446d-9fbd-29b6133ac097" d="M819.91,125.89a17.94,17.94,0,0,1,6.41-4.42,21.2,21.2,0,0,1,7.44-1.27,19.1,19.1,0,0,1,6.52,1.12,31.27,31.27,0,0,1,5.73,2.73,41.31,41.31,0,0,1,4.66,3.28q2.05,1.67,3.4,2.87H856V112.45c-1.23-.63-2.84-1.39-4.85-2.25a45.17,45.17,0,0,0-5.56-2,52.4,52.4,0,0,0-6.8-1.42,60.29,60.29,0,0,0-8-.49q-16.75,0-26.64,10.54T794.23,145q0,18.36,9.86,28.49t26.62,10.14a49.53,49.53,0,0,0,8.4-.55,61.43,61.43,0,0,0,6.56-1.6,43.6,43.6,0,0,0,5.55-2.09c1.8-.8,3.38-1.54,4.75-2.17v-17.5h-1.7c-.94.82-2,1.78-3.3,2.84a38.82,38.82,0,0,1-4.4,3.16,28.2,28.2,0,0,1-5.66,2.73,20.31,20.31,0,0,1-7,1.23,21.82,21.82,0,0,1-7.13-1.25,17.58,17.58,0,0,1-6.47-4.06,21.14,21.14,0,0,1-4.86-7.65,32.12,32.12,0,0,1-1.84-11.68,33.28,33.28,0,0,1,1.76-11.45A21.09,21.09,0,0,1,819.91,125.89Z" transform="translate(-121.57 -4.66)"/><path class="a73ba871-320c-446d-9fbd-29b6133ac097" d="M918.43,107.7h-7.27V135H885.69V107.7H867v74.49h18.71v-33h25.47v33h18.71V115C926.13,112.41,922.3,110,918.43,107.7Z" transform="translate(-121.57 -4.66)"/><path class="a73ba871-320c-446d-9fbd-29b6133ac097" d="M178.68,168V107.7H160v74.49H209.7V168Z" transform="translate(-121.57 -4.66)"/><path class="a73ba871-320c-446d-9fbd-29b6133ac097" d="M256.18,107.7H235.77L210.6,182.19h18.75L234,167h23.42l4.65,15.21h19.26ZM238.1,153.48l7.63-24.57,7.6,24.57Z" transform="translate(-121.57 -4.66)"/><path class="a73ba871-320c-446d-9fbd-29b6133ac097" d="M308.56,121.59a17.93,17.93,0,0,1,4.09-1.35,27.64,27.64,0,0,1,2.79-.31V106.35q-12.81.15-21.43,6.47-8.89,6.48-8.88,16.93,0,7.77,3.75,12.91c2.52,3.44,6.64,6.16,12.42,8.21a66.17,66.17,0,0,0,8.08,2.2c2.11.43,4.13.9,6.06,1.39v-19.1l-1.33-.31c-3.87-.9-6.48-1.9-7.83-3a5.82,5.82,0,0,1-.76-8.05A8.38,8.38,0,0,1,308.56,121.59Zm3.29,48.34a37.05,37.05,0,0,1-13.11-2.56,42.36,42.36,0,0,1-12.36-7.3h-1.7v17.71a75.39,75.39,0,0,0,12.05,4.1,61.14,61.14,0,0,0,15,1.66c1.27,0,2.5,0,3.69-.1V169.67A34.61,34.61,0,0,1,311.85,169.93Zm28.45-23.48q-3.78-4.74-11.54-7.54c-.78-.27-1.56-.54-2.32-.78v43.3a30,30,0,0,0,8.9-4.65,21.46,21.46,0,0,0,8.73-17.85Q344.07,151.15,340.3,146.45Zm-28.45,23.48a37.05,37.05,0,0,1-13.11-2.56,42.36,42.36,0,0,1-12.36-7.3h-1.7v17.71a75.39,75.39,0,0,0,12.05,4.1,61.14,61.14,0,0,0,15,1.66c1.27,0,2.5,0,3.69-.1V169.67A34.61,34.61,0,0,1,311.85,169.93Zm17.48-62.23c-1-.21-1.92-.37-2.89-.53v14.15a30.11,30.11,0,0,1,2.89,1,37.11,37.11,0,0,1,10.15,6h1.64v-17A57.54,57.54,0,0,0,329.33,107.7Zm-44.2,22q0,7.77,3.75,12.91c2.52,3.44,6.64,6.16,12.42,8.21a66.17,66.17,0,0,0,8.08,2.2c2.11.43,4.13.9,6.06,1.39v-19.1l-1.33-.31c-3.87-.9-6.48-1.9-7.83-3a5.82,5.82,0,0,1-.76-8.05,8.38,8.38,0,0,1,3-2.38,17.93,17.93,0,0,1,4.09-1.35,27.64,27.64,0,0,1,2.79-.31V106.35q-12.81.15-21.43,6.47Q285.12,119.3,285.13,129.75Z" transform="translate(-121.57 -4.66)"/><path class="a73ba871-320c-446d-9fbd-29b6133ac097" d="M383.29,141.26v14h14.47v14.61c-.68.06-1.46.12-2.36.14s-1.68.06-2.36.06q-11.34,0-17.91-6.21t-6.53-19.26a30.23,30.23,0,0,1,1.72-10.69,21.41,21.41,0,0,1,4.67-7.63,20.35,20.35,0,0,1,7.05-4.59,24.53,24.53,0,0,1,8.77-1.49,25.71,25.71,0,0,1,7.77,1.14,31.71,31.71,0,0,1,6.47,2.75,40.19,40.19,0,0,1,4.94,3.28l3.87,3h1.7V112.84A78.67,78.67,0,0,0,403.45,108a53.31,53.31,0,0,0-15.2-1.79q-18.11,0-28.55,10.56t-10.43,28.07q0,18.6,10.43,28.73t28,10.14a65,65,0,0,0,15.44-1.9,89.38,89.38,0,0,0,12.74-3.92V141.26Z" transform="translate(-121.57 -4.66)"/><path class="a73ba871-320c-446d-9fbd-29b6133ac097" d="M448.68,168V107.7H430v74.49H479.7V168Z" transform="translate(-121.57 -4.66)"/><path class="a73ba871-320c-446d-9fbd-29b6133ac097" d="M546.79,116.53q-9.64-10.4-26.47-10.39t-26.46,10.43Q484.25,127,484.25,145q0,17.81,9.61,28.28t26.46,10.49q16.81,0,26.47-10.37t9.65-28.4Q556.44,126.89,546.79,116.53Zm-11,39.71a24.33,24.33,0,0,1-3.69,7.58,13.88,13.88,0,0,1-5.37,4.43,15.34,15.34,0,0,1-6.39,1.44,15.83,15.83,0,0,1-6.31-1.34,13.93,13.93,0,0,1-5.45-4.42,23.32,23.32,0,0,1-3.71-7.58A41.35,41.35,0,0,1,503.58,145,41.1,41.1,0,0,1,505,133.5a23,23,0,0,1,3.73-7.71,15.15,15.15,0,0,1,5.41-4.36,15.95,15.95,0,0,1,12.52.1,14.15,14.15,0,0,1,5.43,4.36,23.44,23.44,0,0,1,3.69,7.69,41.21,41.21,0,0,1,1.37,11.33A39.92,39.92,0,0,1,535.83,156.24Z" transform="translate(-121.57 -4.66)"/><path class="a73ba871-320c-446d-9fbd-29b6133ac097" d="M644.7,107.7l-10.82,50L622,107.7H603.47l-12.5,50-10.26-50H561.3l18.85,74.49h20.52l11.62-46.09,11.94,46.09h20.51l18.88-74.49Z" transform="translate(-121.57 -4.66)"/><path class="a73ba871-320c-446d-9fbd-29b6133ac097" d="M665.11,107.7v14.2h22v60.29h18.71V121.9h22V107.7Z" transform="translate(-121.57 -4.66)"/><path class="a73ba871-320c-446d-9fbd-29b6133ac097" d="M785.93,121.9V107.7H735.54v74.49h50.39V168H754.17V149.17h29.26V135H754.17v-13Z" transform="translate(-121.57 -4.66)"/><path class="a73ba871-320c-446d-9fbd-29b6133ac097" d="M819.91,125.89a17.94,17.94,0,0,1,6.41-4.42,21.2,21.2,0,0,1,7.44-1.27,19.1,19.1,0,0,1,6.52,1.12,31.27,31.27,0,0,1,5.73,2.73,41.31,41.31,0,0,1,4.66,3.28q2.05,1.67,3.4,2.87H856V112.45c-1.23-.63-2.84-1.39-4.85-2.25a45.17,45.17,0,0,0-5.56-2,52.4,52.4,0,0,0-6.8-1.42,60.29,60.29,0,0,0-8-.49q-16.75,0-26.64,10.54T794.23,145q0,18.36,9.86,28.49t26.62,10.14a49.53,49.53,0,0,0,8.4-.55,61.43,61.43,0,0,0,6.56-1.6,43.6,43.6,0,0,0,5.55-2.09c1.8-.8,3.38-1.54,4.75-2.17v-17.5h-1.7c-.94.82-2,1.78-3.3,2.84a38.82,38.82,0,0,1-4.4,3.16,28.2,28.2,0,0,1-5.66,2.73,20.31,20.31,0,0,1-7,1.23,21.82,21.82,0,0,1-7.13-1.25,17.58,17.58,0,0,1-6.47-4.06,21.14,21.14,0,0,1-4.86-7.65,32.12,32.12,0,0,1-1.84-11.68,33.28,33.28,0,0,1,1.76-11.45A21.09,21.09,0,0,1,819.91,125.89Z" transform="translate(-121.57 -4.66)"/><path class="a73ba871-320c-446d-9fbd-29b6133ac097" d="M918.43,107.7h-7.27V135H885.69V107.7H867v74.49h18.71v-33h25.47v33h18.71V115C926.13,112.41,922.3,110,918.43,107.7Z" transform="translate(-121.57 -4.66)"/><path class="a73ba871-320c-446d-9fbd-29b6133ac097" d="M993.43,183.15h-11C978.37,164.89,968,134.71,940.69,111,909.48,83.76,866,73.62,823,81.71l-3.4-8.36c47-7.56,94,4.14,128.07,33.82C975.81,131.73,988,162.37,993.43,183.15Z" transform="translate(-121.57 -4.66)"/><path class="a73ba871-320c-446d-9fbd-29b6133ac097" d="M1012.29,183.15H999.62c-4.38-20.7-16.08-56.46-48.22-84.45-35.84-31.21-85.69-42.83-135.14-33.46l-3.91-9.61c53.95-8.73,107.89,4.67,147,38.73C992.43,123.19,1006.32,159.32,1012.29,183.15Z" transform="translate(-121.57 -4.66)"/><path class="a73ba871-320c-446d-9fbd-29b6133ac097" d="M971.59,183.15h-9.28c-2.48-12.64-10.56-42.58-37.61-64.51-25.8-20.92-60.8-28-95.12-20.66l-2.73-6.72c37.44-6.94,75.25,1.29,103.37,24.1C957.59,137.55,967.74,167,971.59,183.15Z" transform="translate(-121.57 -4.66)"/></svg>